<svg preserveAspectRatio="none" width="100%" height="100%" overflow="visible" style="display: block;" viewBox="0 0 329 170.788" fill="none" xmlns="http://www.w3.org/2000/svg">
<g id="Vector">
<path d="M150.769 53.883L118.416 63.2119L111.192 65.2719L104.592 67.1466L139.866 48.0225L143.034 46.3111L150.362 30.7925L157.324 15.9877C157.331 15.9475 157.343 15.8645 157.323 15.8756L157.197 15.9406L151.583 18.0933L137.075 23.6135L138.609 22.2853L161.525 2.8251L164.809 0L166.769 4.19199L180.179 32.7487L186.59 46.3277L190.435 48.385L193.429 49.9981L197.198 52.0568L224.866 67.0539L224.97 67.1189L225.045 67.1867C225.067 67.2074 224.928 67.1673 224.887 67.1562L217.359 64.9689L201.708 60.4504L189.93 57.0664L184.47 55.4878L176.06 53.0709L164.805 49.8667L159.031 51.5227L150.769 53.8816V53.883Z" fill="var(--fill-0, #3944EA)"/>
<path d="M184.528 69.2162L164.797 91.5168L151.795 76.8144L144.931 69.082L143.134 66.9998C143.106 66.9805 143.048 66.9487 143.056 66.9708L143.109 67.1133L148.309 76.7521L143.668 75.9358L123.324 72.2433L104.428 68.7929L164.848 56.7426L224.938 68.7375L225.096 68.7666C225.121 68.7707 225.117 68.8081 225.092 68.8108L224.924 68.8385L218.578 70.0006L196.639 73.9824L189.605 75.2718L183.359 76.4007L181.51 76.7272L181.346 76.7521C181.321 76.7563 181.332 76.6746 181.346 76.6359L183.892 71.8739L186.55 66.9251L184.526 69.2148L184.528 69.2162Z" fill="var(--fill-0, #3944EA)"/>
<path d="M32.1738 150.147C32.1738 156.938 27.7546 160.872 17.6228 160.872C6.08984 160.872 0 155.537 0 145.998H4.9581C4.9581 153.273 9.32339 156.722 17.7306 156.722C24.3055 156.722 27.2157 154.62 27.2157 150.417C27.2157 147.453 25.2755 145.189 20.8564 144.057L10.2396 141.309C4.2575 139.746 1.77845 136.297 1.77845 131.77C1.77845 125.195 6.52098 121.692 15.2516 121.692C25.5989 121.692 31.042 126.65 31.042 134.842H26.03C26.03 128.806 22.4192 125.788 15.2516 125.788C9.70064 125.788 6.73655 127.674 6.73655 131.554C6.73655 134.249 8.35333 136.297 12.503 137.375L23.0121 140.016C29.1558 141.578 32.1738 145.135 32.1738 150.147Z" fill="var(--fill-0, #3944EA)"/>
<path d="M37.8293 146.86C37.8293 138.938 43.488 132.956 52.0569 132.956C60.5719 132.956 66.2306 138.938 66.2306 146.86C66.2306 154.836 60.5719 160.818 52.0569 160.818C43.488 160.818 37.8293 154.836 37.8293 146.86ZM42.5718 146.86C42.5718 152.303 45.9131 156.722 52.0569 156.722C58.1467 156.722 61.4881 152.303 61.4881 146.86C61.4881 141.471 58.1467 137.051 52.0569 137.051C45.9131 137.051 42.5718 141.471 42.5718 146.86Z" fill="var(--fill-0, #3944EA)"/>
<path d="M82.7353 160.818C76.5377 160.818 72.873 156.776 72.873 149.555V133.495H77.7233V149.069C77.7233 154.567 79.7712 156.722 84.3521 156.722C90.2264 156.722 93.8371 152.087 93.8371 144.866V133.495H98.5797V160.279H93.8371V152.95C92.382 157.8 88.6096 160.818 82.7353 160.818Z" fill="var(--fill-0, #3944EA)"/>
<path d="M106.129 137.213C106.129 134.68 107.368 133.495 109.901 133.495H125.045V137.59H110.925V160.279H106.129V137.213Z" fill="var(--fill-0, #3944EA)"/>
<path d="M127.818 146.86C127.818 139.045 132.884 132.956 141.56 132.956C146.95 132.956 153.578 135.974 154.225 143.734H149.429C148.674 138.83 145.441 137.051 141.56 137.051C135.525 137.051 132.56 141.471 132.56 146.86C132.56 152.303 135.525 156.722 141.56 156.722C145.441 156.722 148.674 154.944 149.429 150.04H154.225C153.578 157.8 146.95 160.818 141.56 160.818C132.884 160.818 127.818 154.728 127.818 146.86Z" fill="var(--fill-0, #3944EA)"/>
<path d="M160.323 146.537C160.323 137.86 165.496 132.956 173.149 132.956C181.071 132.956 186.245 137.752 186.245 146.052V147.776H164.958C165.119 153.004 167.868 156.992 173.419 156.992C178 156.992 180.694 154.62 181.61 150.902H186.353C185.275 155.86 181.718 160.818 173.473 160.818C164.742 160.818 160.323 154.459 160.323 146.537ZM165.011 144.381H181.556C181.233 139.531 177.946 136.728 173.149 136.728C168.73 136.728 165.389 139.531 165.011 144.381Z" fill="var(--fill-0, #3944EA)"/>
<path d="M193.538 137.213C193.538 134.68 194.778 133.495 197.311 133.495H212.455V137.59H198.335V160.279H193.538V137.213Z" fill="var(--fill-0, #3944EA)"/>
<path d="M243.584 133.495V167.501C243.584 169.656 242.398 170.788 239.865 170.788H219.386V166.692H238.787V153.004C237.332 157.8 233.613 160.818 227.685 160.818C221.542 160.818 217.877 156.83 217.877 149.608V133.495H222.673V149.069C222.673 154.567 224.775 156.722 229.356 156.722C235.176 156.722 238.787 152.087 238.787 144.866V133.495H243.584Z" fill="#3944EA"/>
<path d="M253.212 160.279V122.285H258.116V139.045L276.547 122.285H283.068L262.589 140.824L283.23 160.279H276.386L258.116 143.087V160.279H253.212Z" fill="var(--fill-0, #3944EA)"/>
<path d="M288.27 160.279V156.183H295.707V137.59H290.156V133.495H297.109C299.049 133.495 300.127 134.411 300.127 136.62V156.183H307.618V160.279H288.27ZM293.552 125.303C293.552 123.201 295.222 121.692 297.324 121.692C299.48 121.692 301.204 123.201 301.204 125.303C301.204 127.405 299.48 128.914 297.324 128.914C295.222 128.914 293.552 127.405 293.552 125.303Z" fill="var(--fill-0, #3944EA)"/>
<path d="M329 156.183V160.279H318.491C315.958 160.279 314.719 159.093 314.719 156.507V137.59H308.79V133.495H314.719V126.704L319.515 125.249V133.495H327.922V137.59H319.515V156.237L329 156.183Z" fill="var(--fill-0, #3944EA)"/>
</g>
</svg>
